<svg width="91" height="91" viewBox="0 0 91 91" fill="none" xmlns="http://www.w3.org/2000/svg">
<g id="aws">
<path id="Vector" d="M25.6506 43.7198C25.6506 44.8403 25.7644 45.7503 25.9805 46.4214C26.2194 47.0868 26.5265 47.8148 26.9474 48.6054C27.0817 48.8143 27.1546 49.0567 27.1578 49.3049C27.1578 49.6064 26.9758 49.9135 26.5891 50.215L24.6781 51.489C24.4487 51.6546 24.1759 51.7495 23.8932 51.7619C23.5861 51.7619 23.2846 51.6141 22.9832 51.3411C22.5744 50.9012 22.2087 50.4232 21.8912 49.9135C21.5529 49.3301 21.2398 48.7323 20.9528 48.122C18.5925 50.9145 15.6293 52.3136 12.0575 52.3136C9.5152 52.3136 7.48476 51.5799 6.00601 50.1239C4.52157 48.6679 3.76514 46.7228 3.76514 44.2943C3.76514 41.7121 4.67514 39.6191 6.51789 38.038C8.36632 36.4569 10.8176 35.672 13.9344 35.672C14.9581 35.672 16.0217 35.763 17.1421 35.9109C18.2626 36.0645 19.4171 36.309 20.6229 36.582V34.3639C20.6229 32.0548 20.1395 30.4452 19.201 29.5068C18.2341 28.5626 16.5961 28.1076 14.2643 28.1076C13.2064 28.1076 12.1201 28.2328 10.9996 28.5058C9.88644 28.7707 8.79356 29.1147 7.72932 29.5352C7.38573 29.6908 7.03236 29.8238 6.67145 29.9333C6.51506 29.985 6.35248 30.0156 6.18801 30.0243C5.76145 30.0243 5.55101 29.7172 5.55101 29.0802V27.5901C5.55101 27.1066 5.60789 26.737 5.76145 26.5322C5.99064 26.2531 6.28312 26.0328 6.61457 25.8895C7.66676 25.3435 8.94076 24.8885 10.4252 24.5245C11.9039 24.1264 13.4794 23.9501 15.1458 23.9501C18.746 23.9501 21.3793 24.7691 23.0742 26.4071C24.7406 28.0451 25.5881 30.5362 25.5881 33.8804V43.7198H25.645H25.6506ZM13.36 48.3324C14.3553 48.3324 15.3847 48.1504 16.4767 47.7864C17.563 47.4224 18.5356 46.7513 19.3489 45.8413C19.8366 45.2825 20.1889 44.6189 20.3783 43.9018C20.5603 43.1681 20.6855 42.2923 20.6855 41.2571V39.9831C19.7668 39.7604 18.8364 39.5895 17.8986 39.4713C16.9555 39.3493 16.0057 39.2866 15.0548 39.2836C13.0244 39.2836 11.5399 39.6817 10.5446 40.5007C9.54364 41.3197 9.06589 42.4743 9.06589 43.9928C9.06589 45.4147 9.4242 46.4783 10.1806 47.2119C10.9086 47.9684 11.9665 48.3324 13.36 48.3324ZM37.6626 51.6141C37.1166 51.6141 36.7526 51.5231 36.5138 51.3069C36.2692 51.125 36.0588 50.7041 35.8768 50.1239L28.7674 26.6516C28.6272 26.2582 28.5336 25.8497 28.4887 25.4345C28.4887 24.9511 28.7333 24.6781 29.2167 24.6781H32.1856C32.7543 24.6781 33.1525 24.7691 33.3629 24.9795C33.6075 25.1615 33.7895 25.5881 33.9715 26.1625L39.0561 46.2678L43.7767 26.1625C43.9246 25.5596 44.1066 25.1615 44.3455 24.9795C44.7104 24.756 45.1355 24.6507 45.5626 24.6781H47.9798C48.5599 24.6781 48.9466 24.7691 49.1912 24.9795C49.4358 25.1615 49.6462 25.5881 49.7656 26.1625L54.5488 46.5124L59.7813 26.1625C59.8784 25.7222 60.0881 25.3145 60.3899 24.9795C60.7423 24.7562 61.1566 24.6506 61.5729 24.6781H64.3882C64.8716 24.6781 65.1446 24.9226 65.1446 25.4345C65.1446 25.5881 65.1105 25.7416 65.0878 25.9236C65.0389 26.1818 64.9665 26.435 64.8716 26.6801L57.5746 50.1524C57.3926 50.761 57.1821 51.1591 56.9433 51.3411C56.5998 51.5608 56.1957 51.6663 55.7887 51.6425H53.1895C52.6151 51.6425 52.2226 51.5515 51.9781 51.3411C51.7335 51.125 51.5231 50.7325 51.4036 50.1239L46.7115 30.5419L42.0477 50.1012C41.8998 50.7098 41.7178 51.1022 41.479 51.3126C41.2344 51.5288 40.8078 51.6198 40.2675 51.6198H37.6626V51.6141ZM76.5538 52.4331C74.9831 52.4352 73.4177 52.2519 71.89 51.8871C70.3771 51.5231 69.1998 51.125 68.4093 50.67C67.9258 50.397 67.596 50.0955 67.4708 49.8168C67.3552 49.5492 67.2952 49.2609 67.2945 48.9694V47.4224C67.2945 46.7854 67.5334 46.4783 67.9884 46.4783C68.1741 46.4787 68.3586 46.5094 68.5344 46.5693C68.7164 46.6318 68.9894 46.7513 69.2908 46.8764C70.3146 47.3314 71.4407 47.6954 72.618 47.94C73.8295 48.1788 75.0068 48.304 76.2182 48.304C78.1292 48.304 79.608 47.9684 80.6374 47.303C81.1319 47.0036 81.5383 46.5785 81.815 46.0709C82.0918 45.5634 82.229 44.9916 82.2128 44.4137C82.2231 44.0235 82.1559 43.6352 82.0154 43.2711C81.8748 42.907 81.6636 42.5743 81.3938 42.2923C80.8535 41.7121 79.8241 41.1946 78.3396 40.7111L73.9489 39.3461C71.7421 38.6466 70.1041 37.6115 69.1088 36.2465C68.1345 34.9852 67.6028 33.4381 67.596 31.8443C67.596 30.5703 67.869 29.4442 68.4093 28.4716C68.9553 27.5048 69.6833 26.6516 70.5933 25.9805C71.5033 25.2866 72.527 24.7691 73.7385 24.4051C74.9499 24.0411 76.2182 23.8875 77.5491 23.8875C78.2202 23.8875 78.9141 23.916 79.5795 24.007C80.2734 24.098 80.9104 24.2231 81.5474 24.3482C82.1503 24.4961 82.7304 24.644 83.2707 24.8316C83.8167 25.0136 84.2376 25.1956 84.5447 25.3776C84.9018 25.557 85.2131 25.8157 85.4547 26.1341C85.6494 26.4302 85.7432 26.7813 85.722 27.1351V28.5626C85.722 29.1996 85.4831 29.5352 85.0281 29.5352C84.6253 29.4892 84.2351 29.3656 83.8793 29.1712C82.0504 28.3603 80.067 27.9566 78.0666 27.9882C76.3433 27.9882 74.9783 28.2612 74.0399 28.8413C73.1015 29.4101 72.618 30.2973 72.618 31.5429C72.618 32.3903 72.9195 33.1183 73.528 33.6985C74.1309 34.2729 75.2513 34.8473 76.8552 35.3649L81.155 36.7299C83.3333 37.4295 84.9087 38.402 85.8471 39.6476C86.7856 40.8931 87.2349 42.3207 87.2349 43.9018C87.2349 45.2099 86.9676 46.3873 86.45 47.4224C85.9142 48.4611 85.1616 49.3726 84.2433 50.0955C83.3048 50.8519 82.1844 51.4036 80.882 51.7961C79.517 52.2226 78.0951 52.4331 76.5538 52.4331Z" fill="white"/>
<g id="Group">
<path id="Vector_2" fill-rule="evenodd" clip-rule="evenodd" d="M82.2697 61.6947C72.3165 69.0714 57.8475 72.99 45.409 72.99C27.9768 72.99 12.2679 66.5234 0.403782 55.774C-0.534655 54.9209 0.312782 53.7663 1.42753 54.4374C14.2642 61.9051 30.0925 66.4324 46.4725 66.4324C57.512 66.4324 69.6491 64.1232 80.8193 59.3855C82.4858 58.6291 83.9077 60.4775 82.2697 61.6947Z" fill="#FF9900"/>
<path id="Vector_3" fill-rule="evenodd" clip-rule="evenodd" d="M86.4159 56.957C85.1476 55.3247 78.0041 56.1721 74.7679 56.5646C73.801 56.6897 73.6474 55.8366 74.5233 55.1996C80.2108 51.1899 89.5668 52.3445 90.6531 53.681C91.7451 55.046 90.3516 64.4304 85.0224 68.9235C84.2091 69.6231 83.4243 69.2648 83.7826 68.3548C84.994 65.3404 87.6899 58.5723 86.4159 56.9627V56.957Z" fill="#FF9900"/>
</g>
</g>
</svg>
