<svg width="64" height="64" viewBox="0 0 64 64" fill="none" xmlns="http://www.w3.org/2000/svg">
<g id="Cloud Native" clip-path="url(#clip0_1_502)">
<g id="g849">
<path id="path6" d="M9.13573 42.6334H0.0499268V64H21.3167V54.8144H9.13573V42.6334ZM54.8643 42.7332V54.8143H42.6833V54.7145V64H63.9501V42.6334H54.7644L54.8643 42.7332ZM0.0499268 21.3666H9.23558L9.13574 21.2668V9.18565H21.3167V4.92406e-06H0.0499372L0.0499268 21.3666ZM42.6833 0V9.18565H54.8643V21.3666H63.9501V0H42.6833Z" fill="#446CA9"/>
<path id="path8" d="M41.4852 21.3666L29.3042 9.18565H42.6833V0H21.3167V9.18565L33.4977 21.3666H41.4852ZM30.5023 42.6334H22.5148L32.5991 52.7176L34.596 54.8144H21.3167V64H42.6833V54.7145L36.5928 48.7239L30.5023 42.6334ZM54.8643 21.3666V34.6459L52.7676 32.5491L42.6833 22.4649V30.5523L48.674 36.5429L54.7644 42.6334H63.9501V21.3666H54.8643ZM21.3167 33.4477L9.23558 21.3666H0.0499268V42.6334H9.13573V29.3541L21.3167 41.5351V33.4477Z" fill="#76C4D5"/>
</g>
</g>
<defs>
<clipPath id="clip0_1_502">
<rect width="64" height="64" fill="white"/>
</clipPath>
</defs>
</svg>
