<svg width="74" height="81" viewBox="0 0 74 81" fill="none" xmlns="http://www.w3.org/2000/svg">
<g id="C_Sharp 1">
<g id="Clip path group">
<mask id="mask0_1_225" style="mask-type:luminance" maskUnits="userSpaceOnUse" x="3" y="3" width="68" height="75">
<g id="hexagon">
<path id="Vector" d="M67.3267 19.7513L39.874 3.96369C38.2926 3.05402 35.7045 3.05402 34.123 3.96369L6.67035 19.7513C5.08877 20.6607 3.79486 22.8933 3.79486 24.7124V56.2878C3.9179 58.4062 5.00426 60.1607 6.67035 61.2487L34.123 77.0363C35.7045 77.946 38.2926 77.946 39.874 77.0363L67.3267 61.2487C69.1144 60.0644 70.1319 58.2817 70.2022 56.2878V24.7124C70.138 22.7984 68.9874 20.868 67.3267 19.7513Z" fill="white"/>
</g>
</mask>
<g mask="url(#mask0_1_225)">
<g id="Group">
<path id="Vector_2" d="M75.3212 21.38H36.283V61.1417H75.3212V21.38Z" fill="url(#paint0_linear_1_225)"/>
<path id="Vector_3" d="M75.3212 62.5697L25.0819 33.6132H-0.570862V81.5498H75.3212V62.5697Z" fill="url(#paint1_linear_1_225)"/>
<path id="Vector_4" d="M-0.570862 62.1758L75.3212 18.4318V1.17157H-0.570862V62.1758Z" fill="url(#paint2_linear_1_225)"/>
</g>
</g>
</g>
<path id="c" d="M14.8628 40.5002C14.7327 18.9703 43.6832 9.46361 56.1679 29.4687L46.588 34.9904C40.805 25.4628 26.4459 28.8695 25.9305 40.5C26.0852 51.2191 40.1984 56.1984 46.5886 46.0091L56.1685 51.5307C45.166 70.5561 15.4177 63.7111 14.8628 40.5002Z" fill="white"/>
<g id="&#226;&#153;&#175;">
<path id="Vector_5" d="M51.3767 34.2485H53.2012L51.9546 46.2427H50.0958L51.3767 34.2485Z" fill="white"/>
<path id="Vector_6" d="M55.2849 34.2485H57.1093L55.8627 46.2427H54.004L55.2849 34.2485Z" fill="white"/>
<path id="Vector_7" d="M58.4557 37.0969H49.3334V38.8519H58.4557V37.0969Z" fill="white"/>
<path id="Vector_8" d="M57.9448 41.3723H48.8225V43.1274H57.9448V41.3723Z" fill="white"/>
</g>
</g>
<defs>
<linearGradient id="paint0_linear_1_225" x1="49.6508" y1="33.4184" x2="68.4294" y2="57.5485" gradientUnits="userSpaceOnUse">
<stop stop-color="#3B009B"/>
<stop offset="1" stop-color="#390086"/>
</linearGradient>
<linearGradient id="paint1_linear_1_225" x1="20.6219" y1="50.7007" x2="40.5863" y2="76.3544" gradientUnits="userSpaceOnUse">
<stop stop-color="#340084"/>
<stop offset="1" stop-color="#290064"/>
</linearGradient>
<linearGradient id="paint2_linear_1_225" x1="21.4694" y1="11.3951" x2="41.9022" y2="37.6508" gradientUnits="userSpaceOnUse">
<stop stop-color="#A47EDE"/>
<stop offset="1" stop-color="#9866D3"/>
</linearGradient>
</defs>
</svg>
