<svg width="35px" height="35px" viewBox="0 0 69 69" fill="none" xmlns="http://www.w3.org/2000/svg">
<g id="dailydev 1">
<g id="Logo/White">
<g id="Icon">
<g id="Secound" opacity="0.56">
<path id="Combined-Shape" fill-rule="evenodd" clip-rule="evenodd" d="M54.3015 34.4029L48.2079 28.3094L51.2531 22.218L61.1539 32.1188C62.4154 33.3803 62.4154 35.4256 61.1539 36.6871L48.9679 48.873C47.7064 50.1345 45.6611 50.1345 44.3996 48.873C43.1381 47.6115 43.1381 45.5662 44.3996 44.3047L54.3015 34.4029Z" fill="white"/>
</g>
<path id="Main" fill-rule="evenodd" clip-rule="evenodd" d="M44.4019 19.9209C45.6634 18.6594 47.7092 18.6599 48.9707 19.9214L51.2554 22.2061L24.6004 48.8611C23.3389 50.1226 21.2931 50.122 20.0316 48.8605L17.7469 46.5759L44.4019 19.9209ZM32.978 28.2985L28.4087 32.8679L22.3152 26.7743L14.6985 34.391L20.7921 40.4845L17.7469 46.5759L7.84612 36.6751C6.58463 35.4136 6.58463 33.3683 7.84612 32.1068L20.0316 19.9214C21.2931 18.6599 23.3389 18.6594 24.6004 19.9209L32.978 28.2985Z" fill="white"/>
</g>
</g>
</g>
</svg>
