<?xml version="1.0" encoding="UTF-8" standalone="no"?>
<!-- Created with Inkscape (http://www.inkscape.org/) -->

<svg
   xmlns:dc="http://purl.org/dc/elements/1.1/"
   xmlns:cc="http://creativecommons.org/ns#"
   xmlns:rdf="http://www.w3.org/1999/02/22-rdf-syntax-ns#"
   xmlns:svg="http://www.w3.org/2000/svg"
   xmlns="http://www.w3.org/2000/svg"
   xmlns:sodipodi="http://sodipodi.sourceforge.net/DTD/sodipodi-0.dtd"
   xmlns:inkscape="http://www.inkscape.org/namespaces/inkscape"
   width="86.360001mm"
   height="84.596001mm"
   viewBox="0 0 86.360001 84.596001"
   version="1.1"
   id="svg8"
   inkscape:version="0.92.4 (5da689c313, 2019-01-14)"
   sodipodi:docname="ddd.svg">
  <defs
     id="defs2" />
  <sodipodi:namedview
     id="base"
     pagecolor="#ffffff"
     bordercolor="#666666"
     borderopacity="1.0"
     inkscape:pageopacity="0.0"
     inkscape:pageshadow="2"
     inkscape:zoom="2.56"
     inkscape:cx="347.74429"
     inkscape:cy="201.40061"
     inkscape:document-units="mm"
     inkscape:current-layer="g5141"
     showgrid="false"
     inkscape:window-width="3440"
     inkscape:window-height="1369"
     inkscape:window-x="1912"
     inkscape:window-y="-8"
     inkscape:window-maximized="1"
     height="84.596mm" />
  <metadata
     id="metadata5">
    <rdf:RDF>
      <cc:Work
         rdf:about="">
        <dc:format>image/svg+xml</dc:format>
        <dc:type
           rdf:resource="http://purl.org/dc/dcmitype/StillImage" />
        <dc:title></dc:title>
      </cc:Work>
    </rdf:RDF>
  </metadata>
  <g
     inkscape:label="Layer 1"
     inkscape:groupmode="layer"
     id="layer1"
     transform="translate(0,-212.404)">
    <g
       id="g4518"
       transform="matrix(0.03527778,0,0,-0.03527778,0,180.62223)"
       style="fill:#000000;stroke:none" />
    <g
       id="g5141"
       transform="matrix(0.26458333,0,0,0.26458333,22.555719,174.00457)">
      <path
         id="path5092"
         d="m 344,513 c -114.63881,0 -228.77763,0 -342.958221,0 0,-170.59717 0,-341.19435 0,-511.895767 170.513701,0 341.069271,0 511.791531,0 0,170.562297 0,341.229017 0,511.895767 C 456.80557,513 400.6528,513 344,513 M 257.61237,387.01263 c 3.28607,2.99146 6.46099,6.11673 9.87606,8.95285 23.87131,19.82453 51.39701,25.35239 81.10019,18.82438 24.66605,-5.42099 43.94831,-19.3516 57.4979,-41.03449 10.2073,-16.33423 14.51266,-33.95709 14.03076,-53.13711 -0.31726,-12.62879 -3.05664,-24.56473 -8.22843,-35.89798 -6.1643,-13.50818 -15.13354,-25.01783 -26.90341,-34.18285 -12.70627,-9.89416 -26.98755,-16.25613 -42.69134,-19.32414 8.55401,-17.38036 10.46783,-35.69641 7.74112,-54.67813 -3.28363,-22.85852 -13.91138,-41.55997 -31.46677,-56.52639 -23.85779,-20.339359 -51.37265,-26.310375 -81.46046,-19.86779 -28.41065,6.08345 -49.14441,22.81571 -62.51777,48.68101 -7.76213,15.01273 -10.33293,30.97356 -9.63227,47.6953 0.52159,12.44809 3.50946,24.18706 8.19275,35.44473 -1.33149,0.0365 -2.70681,-0.13277 -3.98792,0.14014 -23.04842,4.9102 -42.38013,16.21158 -56.58787,35.04338 -15.90109,21.07629 -21.526646,45.07672 -17.632047,71.25332 3.485871,23.42939 14.184277,42.76481 32.651227,57.70752 25.90036,20.95746 55.04823,25.73148 86.74896,17.15476 16.82185,-4.55121 30.54404,-14.26495 43.26932,-26.24851 z"
         inkscape:connector-curvature="0"
         style="opacity:1;fill:none;stroke:none" />
      <path
         id="path5094"
         d="m -4.6189523,279.66124 c -5.5371797,-11.12455 -8.5250497,-22.86352 -9.0466397,-35.31161 -0.70066,-16.72174 1.87014,-32.68257 9.6322697,-47.6953 13.37336,-25.8653 34.1071203,-42.59756 62.5177703,-48.68101 30.087814,-6.44258 57.602672,-0.47156 81.460462,19.86779 17.55539,14.96642 28.18314,33.66787 31.46677,56.52639 2.72671,18.98172 0.81289,37.29777 -8.07636,55.09767 -0.33526,0.41954 -0.76242,0.52668 -1.19229,0.462 -15.37662,-2.54245 -29.94586,-0.8388 -44.20441,3.9952 -15.488,5.25082 -28.351438,14.49209 -39.813558,26.03283 -9.15757,-9.56607 -19.139444,-17.4375 -31.008494,-22.6661 -16.26387,-7.16463 -33.11769,-10.47704 -51.0999403,-7.40561 -0.21565,-0.0628 -0.63558,-0.22225 -0.63558,-0.22225 m 88.2287543,-6.85415 c 9.66024,-0.77797 18.530908,-3.7213 24.421958,-11.76384 8.45075,-11.53705 8.4925,-24.44287 3.06562,-37.03295 -5.28455,-12.2599 -16.262388,-16.64303 -28.833408,-17.07936 -11.14403,-0.38676 -22.312804,-0.006 -33.468434,-0.14456 -3.62275,-0.0449 -5.60003,0.80716 -5.49931,4.97406 0.0912,3.77214 0.36995,6.74289 5.26985,6.22336 3.73419,-0.39595 4.89732,1.50496 4.85359,5.06361 -0.13708,11.1556 -0.12755,22.31482 -0.004,33.47074 0.0384,3.45921 -0.92171,5.56834 -4.75059,5.15857 -4.79033,-0.51265 -5.27301,2.24682 -5.38535,6.12744 -0.13295,4.5917 2.24828,5.11369 5.91567,5.07238 11.15591,-0.12565 22.314084,-0.0514 34.414004,-0.0694 z"
         inkscape:connector-curvature="0"
         style="opacity:1;fill:#0c9dbf;stroke:none" />
      <path
         id="path5096"
         d="m -5.0459023,279.7278 c 0.42695,-0.0666 0.84688,0.0929 1.14296,0.5013 4.62269005,6.88434 8.38179,13.84105 13.38339,19.74519 14.4265003,17.02965 33.2515703,26.67098 54.8916003,31.27901 -2.89085,10.40207 -6.98491,20.29416 -8.22852,30.53247 -3.25079,26.76315 4.41149,50.6199 22.237874,71.33621 -0.007,0.67533 -0.0214,1.0607 -0.0357,1.44611 -12.08215,12.26044 -25.804344,21.97418 -42.626194,26.52539 -31.7007303,8.57672 -60.848601,3.8027 -86.74896,-17.15476 -18.46695,-14.94271 -29.165356,-34.27813 -32.651227,-57.70752 -3.894599,-26.1766 1.730957,-50.17703 17.632047,-71.25332 14.20774,-18.8318 33.539449,-30.13318 56.5878701,-35.04338 1.28111,-0.27291 2.6564296,-0.10361 4.4148596,-0.2067 m 49.2526103,88.10243 c -2.69239,-21.02075 -18.25708,-27.87963 -33.58373,-27.98059 -10.65143025,-0.0701 -21.30528,0.0895 -31.95473,-0.0723 -3.719071,-0.0565 -5.495751,0.94876 -5.377301,5.03866 0.10844,3.74426 0.30972,6.75534 5.243331,6.19766 3.68013,-0.41601 4.94252,1.34851 4.89145,4.97614 -0.1546,10.98257 -0.21944,21.97253 0.0304,32.95166 0.0987,4.33713 -1.30402,6.19726 -5.69073,5.76273 -4.615221,-0.45716 -4.327581,2.78808 -4.427241,5.91271 -0.10609,3.32587 0.57952,5.32926 4.597781,5.2674 11.98053,-0.18445 23.9775597,0.24646 35.94551,-0.18713 16.17383,-0.58597 27.48407,-10.34452 30.02843,-25.51969 0.62564,-3.73138 0.27646,-7.62619 0.29685,-12.3472 z"
         inkscape:connector-curvature="0"
         style="opacity:1;fill:#bf344c;stroke:none" />
      <path
         id="path5098"
         d="m 78.667262,434.70655 c -0.30725,-0.52387 -0.29294,-0.90924 -0.0288,-1.79554 14.94049,-17.75265 22.342898,-37.72952 22.746008,-60.36422 0.25982,-14.58844 -3.407478,-28.28174 -8.764438,-41.61856 31.979578,-5.57025 55.353728,-22.25217 69.952908,-50.93638 0,0 0.42716,-0.10714 0.62631,-0.20101 16.17514,2.3228 30.45642,8.68477 43.16269,18.57893 11.76987,9.16502 20.73911,20.67467 26.90341,34.18285 5.17179,11.33325 7.91117,23.26919 8.22843,35.89798 0.4819,19.18002 -3.82346,36.80288 -14.03076,53.13711 -13.54959,21.68289 -32.83185,35.6135 -57.4979,41.03449 -29.70318,6.52801 -57.22888,1.00015 -81.100188,-18.82438 -3.41507,-2.83612 -6.58999,-5.96139 -10.19763,-9.09127 m 92.551238,-34.43699 c 10.85468,-7.53503 15.52985,-20.55682 12.52359,-34.8822 -2.95975,-14.10385 -10.65625,-22.81561 -24.71643,-24.41745 -13.31653,-1.51715 -26.88461,-0.77923 -40.33795,-1.17312 -3.76672,-0.11029 -5.48538,1.12878 -5.37857,5.13229 0.0949,3.55643 0.36978,6.44879 4.99402,6.01767 3.97485,-0.37051 5.17419,1.60593 5.12191,5.36716 -0.15264,10.98214 -0.14395,21.96896 -0.003,32.95144 0.0471,3.67508 -0.97433,5.83619 -5.03326,5.44815 -4.54385,-0.43435 -5.0206,2.29544 -5.08414,5.9372 -0.0682,3.91128 1.44443,5.28806 5.29709,5.23086 10.64905,-0.15811 21.35086,0.56495 31.93585,-0.27267 6.77344,-0.53601 13.37668,-3.22244 20.68085,-5.33933 z"
         inkscape:connector-curvature="0"
         style="opacity:1;fill:#f7b722;stroke:none" />
      <path
         id="path5100"
         d="m 83.138482,272.8143 c -11.6286,0.0108 -22.786774,-0.0634 -33.942684,0.0622 -3.66739,0.0413 -6.04862,-0.48068 -5.91567,-5.07238 0.11234,-3.88062 0.59502,-6.64009 5.38535,-6.12744 3.82888,0.40977 4.78901,-1.69936 4.75059,-5.15857 -0.12395,-11.15592 -0.13348,-22.31514 0.004,-33.47074 0.0437,-3.55865 -1.1194,-5.45956 -4.85359,-5.06361 -4.8999,0.51953 -5.17865,-2.45122 -5.26985,-6.22336 -0.10072,-4.1669 1.87656,-5.019 5.49931,-4.97406 11.15563,0.13847 22.324404,-0.2422 33.468434,0.14456 12.57102,0.43633 23.548858,4.81946 28.833408,17.07936 5.42688,12.59008 5.38513,25.4959 -3.06562,37.03295 -5.89105,8.04254 -14.761718,10.98587 -24.893278,11.77105 m -12.54445,-14.94723 c 1.41085,1.03456 2.75579,2.85583 4.24285,2.98036 12.97348,1.08644 20.2865,-5.05495 21.12536,-18.60535 0.88675,-14.32452 -4.84082,-23.96711 -19.8966,-23.65208 -4.01204,0.084 -5.69614,1.28015 -5.62572,5.45171 0.18515,10.96911 0.0791,21.94313 0.15411,33.82536 z"
         inkscape:connector-curvature="0"
         style="opacity:1;fill:#54bbd2;stroke:none" />
      <path
         id="path5102"
         d="m 162.14303,279.92717 c -14.16931,28.74889 -37.54346,45.43081 -69.739718,50.92522 -0.62899,0.0189 -1.06594,-0.12726 -1.14404,-0.46765 -4.3454,-6.69788 -8.61276,-13.05539 -12.87091,-19.61353 0.009,-0.20065 0.0159,-0.60235 0.0159,-0.60235 11.18289,-11.7544 24.046328,-20.99567 39.534328,-26.24649 14.25855,-4.834 28.82779,-6.53765 44.20441,-3.9952 z"
         inkscape:connector-curvature="0"
         style="opacity:1;fill:#5aa68b;stroke:none" />
      <path
         id="path5104"
         d="m 78.125062,309.9552 c 0.27923,0.21366 0.27246,0.61536 -0.005,0.99744 -4.44097,6.79785 -8.60485,13.21359 -12.990454,19.707 -0.22174,0.0777 -0.66216,0.24146 -0.66216,0.24146 -21.73579,-4.25583 -40.56086,-13.89716 -54.9873603,-30.92681 -5.0016,-5.90414 -8.76069995,-12.86085 -13.16774,-19.68242 17.6861703,-3.47981 34.5399903,-0.1674 50.8038603,6.99723 11.86905,5.2286 21.850924,13.10003 31.008494,22.6661 z"
         inkscape:connector-curvature="0"
         style="opacity:1;fill:#477998;stroke:none" />
      <path
         id="path5106"
         d="m 64.372048,331.2533 c 0.0958,-0.3522 0.53618,-0.51599 1.17577,-0.49951 9.022904,0.001 17.406224,-0.0136 25.789554,-0.0287 0,0 0.43695,0.14612 0.65362,0.22196 5.98596,13.31796 9.653258,27.01126 9.393438,41.5997 -0.40311,22.6347 -7.805518,42.61157 -22.753268,60.07431 -18.076144,-20.21543 -25.738424,-44.07218 -22.487634,-70.83533 1.24361,-10.23831 5.33767,-20.1304 8.22852,-30.53247 z"
         inkscape:connector-curvature="0"
         style="opacity:1;fill:#d25f3d;stroke:none" />
      <path
         id="path5108"
         d="m 44.245998,368.28089 c -0.0597,4.27035 0.2895,8.16516 -0.33614,11.89654 -2.54436,15.17517 -13.8546,24.93372 -30.02843,25.51969 -11.9679503,0.43359 -23.96498,0.003 -35.94551,0.18713 -4.018261,0.0619 -4.703871,-1.94153 -4.597781,-5.2674 0.0997,-3.12463 -0.18798,-6.36987 4.427241,-5.91271 4.38671,0.43453 5.78942,-1.4256 5.69073,-5.76273 -0.24982,-10.97913 -0.18498,-21.96909 -0.0304,-32.95166 0.0511,-3.62763 -1.21132,-5.39215 -4.89145,-4.97614 -4.933611,0.55768 -5.134891,-2.4534 -5.243331,-6.19766 -0.11845,-4.0899 1.65823,-5.09518 5.377301,-5.03866 10.64945,0.16186 21.30329975,0.002 31.95473,0.0723 15.32665,0.10096 30.89134,6.95984 33.62302,28.43125 m -25.52703,-13.45066 c -4.78604,-1.0563 -9.5401103,-2.36816 -14.3825203,-2.97406 -1.0947,-0.13693 -3.56388995,2.15729 -3.59157995,3.37354 -0.26908,11.82504 -0.21845,23.65988 -0.0359,35.48846 0.0165,1.06794 1.40007995,2.73593 2.47391995,3.06531 6.8485403,2.10077 16.8987603,-1.79913 20.1563103,-7.83102 4.0983,-7.58866 4.22788,-24.74881 -4.62021,-31.12223 z"
         inkscape:connector-curvature="0"
         style="opacity:1;fill:#fe6874;stroke:none" />
      <path
         id="path5110"
         d="m 170.90618,400.4668 c -6.99185,1.91965 -13.59509,4.60608 -20.36853,5.14209 -10.58499,0.83762 -21.2868,0.11456 -31.93585,0.27267 -3.85266,0.0572 -5.36532,-1.31958 -5.29709,-5.23086 0.0635,-3.64176 0.54029,-6.37155 5.08414,-5.9372 4.05893,0.38804 5.08041,-1.77307 5.03326,-5.44815 -0.14099,-10.98248 -0.14968,-21.9693 0.003,-32.95144 0.0523,-3.76123 -1.14706,-5.73767 -5.12191,-5.36716 -4.62424,0.43112 -4.89911,-2.46124 -4.99402,-6.01767 -0.10681,-4.00351 1.61185,-5.24258 5.37857,-5.13229 13.45334,0.39389 27.02142,-0.34403 40.33795,1.17312 14.06018,1.60184 21.75668,10.3136 24.71643,24.41745 3.00626,14.32538 -1.66891,27.34717 -12.83591,35.07944 m -9.42608,-12.103 c 1.55243,-4.80825 4.28192,-9.5795 4.43472,-14.43182 0.44293,-14.0672 -5.31354,-23.1214 -21.18042,-22.24408 -2.90732,0.16074 -4.24756,1.34573 -4.24042,4.24701 0.0279,11.30631 -0.10034,22.61539 0.16269,33.91565 0.0318,1.36731 1.97864,3.71933 3.22907,3.85516 6.22973,0.67664 12.34955,0.16855 17.59436,-5.34192 z"
         inkscape:connector-curvature="0"
         style="opacity:1;fill:#fbcd63;stroke:none" />
      <path
         id="path5112"
         d="m 70.561492,257.41199 c -0.0425,-11.42715 0.0636,-22.40117 -0.12157,-33.37028 -0.0704,-4.17156 1.61368,-5.36774 5.62572,-5.45171 15.05578,-0.31503 20.78335,9.32756 19.8966,23.65208 -0.83886,13.5504 -8.15188,19.69179 -21.12536,18.60535 -1.48706,-0.12453 -2.832,-1.9458 -4.27539,-3.43544 z"
         inkscape:connector-curvature="0"
         style="opacity:1;fill:#0e9ebf;stroke:none" />
      <path
         id="path5114"
         d="m 91.259272,330.38474 c -8.30523,0.35544 -16.68855,0.37045 -25.48971,0.29135 3.74601,-6.50986 7.90989,-12.9256 12.3417,-19.52277 4.53525,6.17603 8.80261,12.53354 13.14801,19.23142 z"
         inkscape:connector-curvature="0"
         style="opacity:1;fill:#618286;stroke:none" />
      <path
         id="path5116"
         d="m 19.013508,355.05497 c 8.55355,6.14868 8.42397,23.30883 4.32567,30.89749 -3.25755,6.03189 -13.30777,9.93179 -20.1563103,7.83102 -1.07384,-0.32938 -2.45742995,-1.99737 -2.47391995,-3.06531 -0.18253,-11.82858 -0.23316,-23.66342 0.0359,-35.48846 0.0277,-1.21625 2.49687995,-3.51047 3.59157995,-3.37354 4.84241,0.6059 9.5964803,1.91776 14.6770603,3.1988 z"
         inkscape:connector-curvature="0"
         style="opacity:1;fill:#c0354d;stroke:none" />
      <path
         id="path5118"
         d="m 161.22387,388.62836 c -4.98858,5.24591 -11.1084,5.754 -17.33813,5.07736 -1.25043,-0.13583 -3.19724,-2.48785 -3.22907,-3.85516 -0.26303,-11.30026 -0.13482,-22.60934 -0.16269,-33.91565 -0.007,-2.90128 1.3331,-4.08627 4.24042,-4.24701 15.86688,-0.87732 21.62335,8.17688 21.18042,22.24408 -0.1528,4.85232 -2.88229,9.62357 -4.69095,14.69638 z"
         inkscape:connector-curvature="0"
         style="opacity:1;fill:#f7b823;stroke:none" />
    </g>
  </g>
</svg>
