<svg width="45" height="67" viewBox="0 0 45 67" fill="none" xmlns="http://www.w3.org/2000/svg">
<g id="figma_logo" clip-path="url(#clip0_11_395)">
<path id="Vector" d="M22.5 33.5C22.5 30.5384 23.6853 27.6981 25.795 25.604C27.9048 23.5098 30.7663 22.3333 33.75 22.3333C36.7337 22.3333 39.5952 23.5098 41.705 25.604C43.8147 27.6981 45 30.5384 45 33.5C45 36.4616 43.8147 39.3019 41.705 41.396C39.5952 43.4902 36.7337 44.6667 33.75 44.6667C30.7663 44.6667 27.9048 43.4902 25.795 41.396C23.6853 39.3019 22.5 36.4616 22.5 33.5Z" fill="#1ABCFE"/>
<path id="Vector_2" d="M0 55.8333C0 52.8718 1.18526 50.0315 3.29505 47.9373C5.40483 45.8432 8.26631 44.6667 11.25 44.6667H22.5V55.8333C22.5 58.7949 21.3147 61.6352 19.205 63.7294C17.0952 65.8235 14.2337 67 11.25 67C8.26631 67 5.40483 65.8235 3.29505 63.7294C1.18526 61.6352 0 58.7949 0 55.8333H0Z" fill="#0ACF83"/>
<path id="Vector_3" d="M22.5 0V22.3333H33.75C36.7337 22.3333 39.5952 21.1568 41.705 19.0627C43.8147 16.9685 45 14.1283 45 11.1667C45 8.20508 43.8147 5.3648 41.705 3.27064C39.5952 1.17648 36.7337 0 33.75 0L22.5 0Z" fill="#FF7262"/>
<path id="Vector_4" d="M0 11.1667C0 14.1283 1.18526 16.9685 3.29505 19.0627C5.40483 21.1568 8.26631 22.3333 11.25 22.3333H22.5V0H11.25C8.26631 0 5.40483 1.17648 3.29505 3.27064C1.18526 5.3648 0 8.20508 0 11.1667H0Z" fill="#F24E1E"/>
<path id="Vector_5" d="M0 33.5C0 36.4616 1.18526 39.3019 3.29505 41.396C5.40483 43.4902 8.26631 44.6667 11.25 44.6667H22.5V22.3333H11.25C8.26631 22.3333 5.40483 23.5098 3.29505 25.604C1.18526 27.6981 0 30.5384 0 33.5H0Z" fill="#A259FF"/>
</g>
<defs>
<clipPath id="clip0_11_395">
<rect width="45" height="67" fill="white"/>
</clipPath>
</defs>
</svg>
