<svg width="49" height="49" viewBox="0 0 49 49" fill="none" xmlns="http://www.w3.org/2000/svg">
<g id="hashnode-svgrepo-com 1" clip-path="url(#clip0_1_2055)">
<path id="Vector" d="M45.6332 16.3721L32.6278 3.36666C30.4722 1.21102 27.5485 0 24.5 0C21.4514 0 18.5277 1.21102 16.3721 3.36666L3.36666 16.3721C1.21102 18.5277 0 21.4514 0 24.5C0 27.5485 1.21102 30.4722 3.36666 32.6278L16.3721 45.6332C18.5277 47.7889 21.4514 48.9999 24.5 48.9999C27.5485 48.9999 30.4722 47.7889 32.6278 45.6332L45.6332 32.6278C47.7889 30.4722 48.9999 27.5485 48.9999 24.5C48.9999 21.4514 47.7889 18.5277 45.6332 16.3721ZM24.5 32.5707C23.4401 32.5707 22.3906 32.3619 21.4114 31.9563C20.4322 31.5507 19.5425 30.9562 18.7931 30.2068C18.0437 29.4574 17.4492 28.5677 17.0436 27.5885C16.638 26.6093 16.4292 25.5598 16.4292 24.5C16.4292 23.4401 16.638 22.3906 17.0436 21.4114C17.4492 20.4322 18.0437 19.5425 18.7931 18.7931C19.5425 18.0437 20.4322 17.4492 21.4114 17.0436C22.3906 16.638 23.4401 16.4292 24.5 16.4292C26.6404 16.4292 28.6933 17.2796 30.2068 18.7931C31.7204 20.3067 32.5707 22.3595 32.5707 24.5C32.5707 26.6404 31.7204 28.6933 30.2068 30.2068C28.6933 31.7204 26.6404 32.5707 24.5 32.5707Z" fill="white"/>
</g>
<defs>
<clipPath id="clip0_1_2055">
<rect width="49" height="49" fill="white"/>
</clipPath>
</defs>
</svg>
