<svg width="52" height="73" viewBox="0 0 52 73" fill="none" xmlns="http://www.w3.org/2000/svg">
<g id="html5" clip-path="url(#clip0_1_372)">
<g id="Group">
<path id="Vector" d="M4.73224 67.1338L0 14.3481H52L47.2626 67.1255L25.9681 72.9966L4.73224 67.1338Z" fill="#E44D26"/>
<path id="Vector_2" d="M26 68.509L43.2068 63.7647L47.2555 18.6643H26V68.509Z" fill="#F16529"/>
<path id="Vector_3" d="M26 38.2417H17.386L16.7909 31.6123H26V25.1383H9.67627L9.83227 26.8752L11.4322 44.7155H26V38.2417ZM26 55.0551L25.9714 55.0629L18.7214 53.1159L18.2579 47.9528H11.7232L12.6353 58.1178L25.9702 61.7992L26 61.7909V55.0551Z" fill="#EBEBEB"/>
<path id="Vector_4" d="M4.83813 0.00335693H8.14628V3.25377H11.1724V0.00335693H14.4807V9.84649H11.1724V6.55048H8.14628V9.84649H4.83837L4.83813 0.00335693ZM18.8313 3.26764H15.9191V0.00335693H25.0537V3.26764H22.1401V9.84649H18.8315V3.26764H18.8313ZM26.5032 0.00335693H29.953L32.0749 3.46203L34.1949 0.00335693H37.6458V9.84649H34.3506V4.96759L32.0746 8.4674H32.0177L29.7401 4.96759V9.84649H26.5031V0.00335693H26.5032ZM39.2919 0.00335693H42.601V6.59303H47.2536V9.84649H39.2919V0.00335693Z" fill="white"/>
<path id="Vector_5" d="M25.9775 38.2417V44.7155H33.9938L33.238 53.1119L25.9775 55.0605V61.7958L39.3231 58.1178L39.4207 57.0237L40.9507 39.9802L41.1095 38.2417H39.3555H25.9775ZM25.9775 25.1383V31.6123H41.702L41.8323 30.1571L42.129 26.8752L42.2847 25.1383H25.9775Z" fill="white"/>
</g>
</g>
<defs>
<clipPath id="clip0_1_372">
<rect width="52" height="73" fill="white"/>
</clipPath>
</defs>
</svg>
