<svg width="69" height="69" viewBox="0 0 69 69" fill="none" xmlns="http://www.w3.org/2000/svg">
<g id="javascript" clip-path="url(#clip0_1_380)">
<path id="Vector" d="M0 0H69V69H0V0Z" fill="#F7DF1E"/>
<path id="Vector_2" d="M18.1427 57.6614L23.4228 54.4658C24.4416 56.2719 25.3683 57.8002 27.5911 57.8002C29.7217 57.8002 31.0653 56.9668 31.0653 53.7249V31.6778H37.5495V53.8165C37.5495 60.5324 33.6127 63.5895 27.869 63.5895C22.6818 63.5895 19.6709 60.903 18.1424 57.6608M41.0714 56.9665L46.351 53.9098C47.741 56.1795 49.5474 57.8468 52.7429 57.8468C55.4299 57.8468 57.143 56.5035 57.143 54.6507C57.143 52.4276 55.383 51.6401 52.4187 50.3436L50.798 49.6482C46.1197 47.6572 43.0166 45.1559 43.0166 39.8758C43.0166 35.0124 46.7219 31.3069 52.5117 31.3069C56.6339 31.3069 59.5982 32.7429 61.7286 36.4946L56.6797 39.737C55.5679 37.7454 54.3642 36.9581 52.5114 36.9581C50.6123 36.9581 49.408 38.1624 49.408 39.737C49.408 41.6822 50.6123 42.4701 53.3912 43.6743L55.0121 44.3689C60.524 46.7314 63.6271 49.1396 63.6271 54.5583C63.6271 60.3947 59.0419 63.5903 52.8817 63.5903C46.8607 63.5903 42.97 60.7187 41.0712 56.9668" fill="black"/>
</g>
<defs>
<clipPath id="clip0_1_380">
<rect width="69" height="69" fill="white"/>
</clipPath>
</defs>
</svg>
