<svg width="71" height="71" viewBox="0 0 71 71" fill="none" xmlns="http://www.w3.org/2000/svg">
<g id="java" clip-path="url(#clip0_1_2029)">
<g id="Group">
<path id="Vector" d="M35.1485 13.1557C31.8678 15.4631 28.1495 18.0783 26.1572 22.405C22.6968 29.9536 33.2381 38.1876 33.6887 38.5344C33.7934 38.615 33.9187 38.6552 34.0437 38.6552C34.1764 38.6552 34.3092 38.6099 34.4171 38.5194C34.6264 38.3444 34.6857 38.0471 34.5601 37.805C34.5219 37.7315 30.7381 30.3819 30.8787 25.1093C30.9285 23.2728 33.4985 21.1895 36.2193 18.984C38.7112 16.9638 41.536 14.6742 43.1887 11.9957C46.8169 6.09991 42.7843 0.302572 42.7431 0.244607C42.583 0.0196801 42.2873 -0.0617207 42.0345 0.0490786C41.782 0.160571 41.6421 0.433617 41.6998 0.703612C41.708 0.742025 42.4921 4.57576 40.31 8.52557C39.4111 10.1577 37.4359 11.547 35.1485 13.1557Z" fill="#DB380E"/>
<path id="Vector_2" d="M48.9704 15.7556C49.2018 15.5812 49.2698 15.2633 49.1298 15.0095C48.9896 14.7557 48.6846 14.6438 48.4136 14.7467C47.8563 14.9586 34.766 20.0045 34.766 26.1012C34.766 30.304 36.5613 32.5241 37.8721 34.1455C38.3863 34.7814 38.8302 35.3305 38.9765 35.7994C39.3884 37.1505 38.4127 39.5925 38.0024 40.4196C37.8841 40.6572 37.942 40.9454 38.1433 41.119C38.252 41.2129 38.3877 41.2606 38.5236 41.2606C38.6393 41.2606 38.7555 41.2262 38.8559 41.1563C39.081 40.9999 44.3566 37.2699 43.4104 32.7759C43.0579 31.0678 42.2186 29.8197 41.4779 28.7184C40.3305 27.012 39.5018 25.7795 40.759 23.503C42.232 20.8477 48.9028 15.806 48.9704 15.7556Z" fill="#DB380E"/>
</g>
<g id="Group_2">
<path id="Vector_3" d="M14.8959 41.3571C14.6715 42.029 14.7775 42.6955 15.2019 43.2851C16.621 45.2552 21.6474 46.3399 29.356 46.3399C29.3564 46.3399 29.3567 46.3399 29.3569 46.3399C30.4014 46.3399 31.5041 46.3194 32.6336 46.2789C44.9581 45.8378 49.5293 41.9982 49.7179 41.835C49.9234 41.6571 49.9784 41.3609 49.8506 41.1213C49.7228 40.8818 49.4472 40.7614 49.1839 40.8339C44.8433 42.019 36.7383 42.4398 31.1166 42.4398C24.826 42.4398 21.6223 41.9866 20.838 41.652C21.2404 41.0994 23.7227 40.1126 26.7986 39.5075C27.0926 39.4498 27.2946 39.1783 27.2655 38.8802C27.2364 38.582 26.9859 38.3546 26.6862 38.3546C24.8832 38.3546 15.8411 38.4994 14.8959 41.3571Z" fill="#73A1FB"/>
<path id="Vector_4" d="M56.1362 37.4025C53.5942 37.4025 51.1837 38.6766 51.0822 38.7305C50.8471 38.8564 50.7279 39.126 50.7924 39.3851C50.8571 39.6437 51.0897 39.8255 51.3563 39.8258C51.4103 39.8258 56.7787 39.8697 57.2649 42.937C57.6956 45.5832 52.1855 49.8706 50.0259 51.2995C49.7927 51.4539 49.7021 51.752 49.8104 52.0099C49.9026 52.2295 50.1163 52.3667 50.3468 52.3667C50.387 52.3667 50.4278 52.3626 50.4683 52.354C50.9808 52.2443 63.0051 49.5945 61.7338 42.5937C60.9582 38.3031 58.2615 37.4025 56.1362 37.4025Z" fill="#73A1FB"/>
<path id="Vector_5" d="M47.8901 50.4428C47.932 50.2186 47.8387 49.9905 47.652 49.8594L44.7689 47.8399C44.6283 47.7415 44.4506 47.7106 44.2856 47.7542C44.2555 47.7619 41.2405 48.5545 36.8632 49.0406C35.1259 49.2354 33.18 49.3383 31.2355 49.3383C26.8593 49.3383 23.998 48.8241 23.5812 48.4469C23.5261 48.341 23.5435 48.2928 23.5534 48.2661C23.6291 48.0556 24.0348 47.8054 24.2964 47.7064C24.5852 47.5995 24.741 47.2858 24.6511 46.9913C24.5615 46.6963 24.2577 46.5228 23.9579 46.5948C21.0657 47.2927 19.6515 48.2687 19.7544 49.4955C19.9372 51.6708 24.9755 52.7872 29.2348 53.0823C29.8473 53.1242 30.5097 53.1454 31.2032 53.1454C31.2037 53.1454 31.2039 53.1454 31.2043 53.1454C38.2869 53.1454 47.3666 50.9232 47.4573 50.9006C47.679 50.8465 47.8481 50.6675 47.8901 50.4428Z" fill="#73A1FB"/>
<path id="Vector_6" d="M26.1539 55.1111C26.3723 54.9691 26.4691 54.6991 26.3916 54.4505C26.3143 54.2018 26.0818 54.0385 25.8205 54.0419C25.4329 54.0522 22.028 54.2058 21.7896 56.3737C21.7175 57.0216 21.903 57.6136 22.3414 58.1329C23.5639 59.5817 26.864 60.4429 32.4285 60.7655C33.0868 60.805 33.7555 60.8248 34.4163 60.8248C41.4906 60.8248 46.2552 58.6098 46.4547 58.5155C46.6481 58.424 46.7757 58.2339 46.7871 58.0203C46.7985 57.8067 46.6918 57.6041 46.5093 57.4925L42.8657 55.2682C42.7393 55.1911 42.588 55.1656 42.4437 55.1951C42.4207 55.2 40.1072 55.6798 36.6159 56.1538C35.9553 56.2436 35.1279 56.2892 34.1572 56.2892C30.6696 56.2892 26.7904 55.7194 26.0464 55.3463C26.0356 55.2767 26.0493 55.1882 26.1539 55.1111Z" fill="#73A1FB"/>
<path id="Vector_7" d="M31.1192 67.5127C47.3236 67.499 56.0207 64.6172 57.6962 62.8038C58.2893 62.1623 58.3533 61.5549 58.303 61.1582C58.1785 60.1819 57.2892 59.5842 57.1884 59.5193C56.9451 59.3629 56.6187 59.4038 56.429 59.6226C56.2397 59.8415 56.2353 60.1613 56.4252 60.3799C56.5274 60.5114 56.5865 60.7315 56.2877 61.0306C55.6179 61.6561 48.8625 63.555 37.6146 64.1255C36.0738 64.2055 34.4577 64.2463 32.8115 64.2465C22.7407 64.2465 15.3704 62.867 14.4029 62.0633C14.7758 61.5275 17.3829 60.6714 20.1553 60.1872C20.4678 60.1327 20.6788 59.8383 20.6304 59.5249C20.582 59.2116 20.2932 58.996 19.9774 59.0369C19.8992 59.0476 19.6338 59.0634 19.3265 59.0822C14.752 59.3615 9.46563 59.984 9.18981 62.341C9.10605 63.0592 9.31947 63.7113 9.82438 64.2787C11.0598 65.6668 14.6108 67.5124 31.1186 67.5124C31.1189 67.5127 31.1189 67.5127 31.1192 67.5127Z" fill="#73A1FB"/>
<path id="Vector_8" d="M60.879 63.3148C60.6499 63.2089 60.3792 63.2624 60.2083 63.4468C60.1846 63.4725 57.7483 66.02 50.4231 67.516C47.6187 68.0779 42.3547 68.3629 34.7772 68.3629C27.1856 68.3629 19.9617 68.0642 19.8898 68.0612C19.588 68.0465 19.3299 68.2658 19.2889 68.5629C19.2477 68.8596 19.4391 69.1395 19.7304 69.2088C19.8056 69.2266 27.3761 71.0002 37.7272 71.0002C42.6918 71.0002 47.5229 70.5971 52.0864 69.8014C60.5955 68.3097 61.1913 64.0904 61.2125 63.9115C61.2421 63.6615 61.1076 63.4208 60.879 63.3148Z" fill="#73A1FB"/>
</g>
</g>
<defs>
<clipPath id="clip0_1_2029">
<rect width="71" height="71" fill="white"/>
</clipPath>
</defs>
</svg>
