<svg width="77" height="77" viewBox="0 0 77 77" fill="none" xmlns="http://www.w3.org/2000/svg">
<g id="Kafka" clip-path="url(#clip0_1_473)">
<g id="Group">
<path id="Vector" d="M31.0297 6.84502C30.1816 5.99272 28.9983 5.46637 27.6829 5.46637C26.3724 5.46637 25.1983 5.99272 24.3601 6.84502H24.336C23.4904 7.69316 22.964 8.87723 22.964 10.1877C22.964 11.5032 23.4904 12.6772 24.336 13.5204L24.3601 13.5395C25.1983 14.3877 26.3724 14.909 27.6829 14.909C28.9983 14.909 30.1816 14.3877 31.0297 13.5395L31.0422 13.5204C31.892 12.6772 32.4133 11.5032 32.4133 10.1877C32.4133 8.87723 31.892 7.69316 31.0422 6.84502H31.0297ZM27.6829 71.4727C28.9983 71.4727 30.1816 70.9372 31.0297 70.0991L31.0422 70.0741C31.892 69.2376 32.4133 68.0535 32.4133 66.7522C32.4133 65.4368 31.892 64.2577 31.0422 63.4054H31.0297C30.1816 62.5431 28.9983 62.0217 27.6829 62.0217C26.3724 62.0217 25.1983 62.5431 24.3601 63.4054H24.336C23.4904 64.2577 22.964 65.4368 22.964 66.7522C22.964 68.0535 23.4904 69.2376 24.336 70.0741L24.3601 70.0991C25.1983 70.9372 26.3724 71.4727 27.6829 71.4727ZM53.4066 57.169C54.5765 56.8622 55.6358 56.1113 56.2819 54.9763L56.3692 54.8109C56.9438 53.734 57.0486 52.4918 56.7418 51.3908C56.4324 50.2118 55.6724 49.169 54.5399 48.5163L54.4742 48.4722C53.3708 47.8677 52.1136 47.7363 50.9586 48.0482C49.7845 48.3409 48.7301 49.125 48.0874 50.2508C47.4363 51.3659 47.2999 52.6522 47.6117 53.8363C47.9335 55.0004 48.6861 56.0531 49.8111 56.7109H49.8186C50.9461 57.3586 52.2233 57.4759 53.4066 57.169ZM32.5281 33.6314C31.2875 32.3941 29.5779 31.6191 27.6829 31.6191C25.7953 31.6191 24.0899 32.3941 22.8518 33.6314C21.6195 34.8645 20.8595 36.57 20.8595 38.46C20.8595 40.355 21.6195 42.0654 22.8518 43.3127C24.0899 44.54 25.7953 45.31 27.6829 45.31C29.5779 45.31 31.2875 44.54 32.5281 43.3127C33.7629 42.0654 34.5229 40.355 34.5229 38.46C34.5229 36.57 33.7629 34.8645 32.5281 33.6314ZM29.8041 25.584C32.5497 26.0363 35.0201 27.3518 36.9052 29.2518H36.9201C37.2195 29.5536 37.5122 29.8804 37.7824 30.2114L42.4963 27.484C41.8627 25.569 41.8336 23.5667 42.3424 21.6909C43.0151 19.1764 44.6449 16.9255 47.0879 15.5127L47.1685 15.4645C49.5849 14.095 52.3322 13.8123 54.8126 14.485C57.3238 15.1568 59.5897 16.7941 60.9999 19.2354V19.2404C62.4035 21.6667 62.6887 24.4531 62.0185 26.9577C61.3508 29.4705 59.7136 31.7364 57.2731 33.1391L56.6295 33.52H56.5638C54.3063 34.5959 51.8234 34.7622 49.5433 34.1627C47.6708 33.6655 45.9529 32.6228 44.6083 31.1368L39.902 33.8559C40.4424 35.2878 40.7426 36.8327 40.7426 38.46C40.7426 40.0823 40.4424 41.6463 39.902 43.0882L44.6083 45.7973C45.9529 44.2922 47.6708 43.2686 49.5433 42.7714C52.0545 42.0845 54.8393 42.3772 57.2731 43.795L57.4286 43.8681V43.8781C59.7801 45.3 61.3583 47.5027 62.0185 49.9873C62.6887 52.4768 62.4035 55.264 60.9999 57.6954L60.9151 57.8658L60.9051 57.8509C59.4949 60.1949 57.2731 61.7831 54.8201 62.455C52.3031 63.1177 49.5192 62.835 47.0879 61.4372V61.4172C44.6449 60.0045 43.0151 57.7486 42.3424 55.2399C41.8336 53.369 41.8627 51.3659 42.4963 49.4518L37.7824 46.7327C37.5122 47.0645 37.2195 47.3763 36.9201 47.6781L36.9052 47.6923C35.0201 49.5831 32.5497 50.8986 29.8041 51.3368V56.784C31.7606 57.1931 33.5143 58.1727 34.8888 59.5463L34.8954 59.5613C36.7372 61.3931 37.8772 63.9459 37.8772 66.7522C37.8772 69.5494 36.7372 72.0864 34.8954 73.9282L34.8888 73.9573C33.0345 75.7991 30.4892 76.9391 27.6829 76.9391C24.8915 76.9391 22.3429 75.7991 20.4936 73.9573H20.4869V73.9282C18.6427 72.0864 17.5002 69.5494 17.5002 66.7522C17.5002 63.9459 18.6427 61.3931 20.4869 59.5613V59.5463H20.4936C21.8656 58.1727 23.6218 57.1931 25.5733 56.784V51.3368C22.8252 50.8986 20.3622 49.5831 18.4797 47.6923L18.4597 47.6781C16.1065 45.315 14.6356 42.0654 14.6356 38.46C14.6356 34.8645 16.1065 31.615 18.4597 29.2518H18.4797C20.3622 27.3518 22.8252 26.0363 25.5733 25.584V20.1609C23.6218 19.7368 21.8656 18.7581 20.4936 17.3936H20.4869V17.3786C18.6427 15.5277 17.5002 12.9941 17.5002 10.1877C17.5002 7.39548 18.6427 4.83774 20.4869 2.99594L20.4936 2.9868C22.3429 1.14 24.8915 0 27.6829 0C30.4892 0 33.0345 1.14 34.8888 2.9868V2.99594H34.8954C36.7372 4.83774 37.8772 7.39548 37.8772 10.1877C37.8772 12.9941 36.7372 15.5277 34.8954 17.3786L34.8888 17.3936C33.5143 18.7581 31.7606 19.7368 29.8041 20.1609V25.584ZM56.2819 21.9686L56.2428 21.9104C55.5918 20.8136 54.554 20.0827 53.4066 19.7659C52.2233 19.4541 50.9461 19.5863 49.8111 20.234H49.8186C48.6861 20.8768 47.9285 21.9295 47.6117 23.1086C47.2999 24.2777 47.4363 25.569 48.0874 26.6941L48.109 26.724C48.7617 27.8341 49.7994 28.5791 50.9586 28.8809C52.1235 29.2077 53.4215 29.0714 54.5399 28.4186L54.6006 28.3895C55.7015 27.7318 56.4349 26.6941 56.7418 25.5541C57.0536 24.38 56.9297 23.0936 56.2819 21.9686Z" fill="white"/>
</g>
</g>
<defs>
<clipPath id="clip0_1_473">
<rect width="77" height="77" fill="white"/>
</clipPath>
</defs>
</svg>
