<svg width="86" height="86" viewBox="0 0 86 86" fill="none" xmlns="http://www.w3.org/2000/svg">
<g id="mongodb" clip-path="url(#clip0_1_482)">
<path id="Vector" d="M42.7313 0.233765L45.0264 4.54452C45.5424 5.34001 46.1014 6.04414 46.7598 6.69989C48.6814 8.62145 50.5062 10.6344 52.1456 12.7898C56.0344 17.896 58.6574 23.5666 60.5306 29.6995C61.654 33.4459 62.264 37.289 62.3097 41.1751C62.4978 52.7932 58.515 62.7692 50.4847 71.0601C49.1732 72.3716 47.7703 73.5864 46.2653 74.6668C45.4698 74.6668 45.0936 74.0567 44.7657 73.495C44.1556 72.4657 43.7821 71.2913 43.594 70.1222C43.3118 68.7166 43.1263 67.3111 43.2177 65.8598V65.2041C43.1532 65.0643 42.4518 0.564327 42.7313 0.233765Z" fill="#599636"/>
<path id="Vector_2" d="M42.7313 0.0913595C42.6372 -0.0967655 42.5431 0.0456719 42.4491 0.137047C42.4948 1.07767 42.1669 1.91617 41.6536 2.71705C41.0892 3.51255 40.3421 4.12261 39.5923 4.77836C35.4266 8.38498 32.1479 12.7414 29.5222 17.6139C26.0285 24.1714 24.2278 31.1992 23.7172 38.5979C23.4834 41.2665 24.5611 50.6835 25.4023 53.4006C27.6974 60.6139 31.82 66.658 37.1601 71.904C38.4716 73.1672 39.8745 74.3389 41.3257 75.465C41.7476 75.465 41.7933 75.0887 41.8901 74.8092C42.0751 74.2112 42.2161 73.6004 42.312 72.9817L43.2526 65.9566L42.7313 0.0913595Z" fill="#6CAC48"/>
<path id="Vector_3" d="M45.0264 77.521C45.1204 76.446 45.6364 75.5537 46.1981 74.6641C45.6337 74.4303 45.2145 73.9654 44.8866 73.4467C44.6044 72.9791 44.3706 72.4174 44.1879 71.9014C43.5321 69.9341 43.3924 67.8701 43.2042 65.8599V64.6425C42.9704 64.8306 42.9221 66.4216 42.9221 66.6581C42.7853 68.7828 42.5034 70.8956 42.0782 72.9818C41.9384 73.8256 41.8444 74.6668 41.3257 75.4166C41.3257 75.5107 41.3257 75.6048 41.3714 75.7445C42.2152 78.2278 42.4464 80.7567 42.5888 83.334V84.2746C42.5888 85.398 42.5431 85.1615 43.4757 85.5378C43.8519 85.6775 44.2712 85.7259 44.6474 86.0054C44.9296 86.0054 44.9753 85.7716 44.9753 85.5835L44.8356 84.0381V79.7274C44.7899 78.9749 44.9296 78.2278 45.0237 77.5236L45.0264 77.521Z" fill="#C2BFBF"/>
</g>
<defs>
<clipPath id="clip0_1_482">
<rect width="86" height="86" fill="white"/>
</clipPath>
</defs>
</svg>
