<svg width="77" height="77" viewBox="0 0 77 77" fill="none" xmlns="http://www.w3.org/2000/svg">
<g id="node">
<path id="Vector" d="M35.266 1.02746C37.191 -0.0625723 39.6454 -0.0673848 41.5223 1.02746L70.2625 17.2287C72.06 18.2394 73.2631 20.2438 73.2462 22.3156V54.7999C73.2583 56.9583 71.9372 59.0061 70.0411 59.9974L41.4549 76.1241C40.4771 76.6644 39.3726 76.9331 38.2559 76.9022C37.1392 76.8713 36.0512 76.542 35.1048 75.9485L26.5265 70.9916C25.9418 70.6427 25.2849 70.366 24.871 69.8005C25.2368 69.3096 25.8864 69.247 26.4158 69.0305C27.6093 68.6503 28.7018 68.068 29.799 67.452C30.0757 67.2595 30.415 67.3317 30.6797 67.5049L37.9947 71.7351C38.5168 72.0359 39.0462 71.6389 39.4938 71.3862L67.5627 55.5459C67.9092 55.3774 68.1017 55.0117 68.0728 54.6315V22.4599C68.1113 22.0268 67.8635 21.6322 67.4712 21.4565L38.9572 5.39962C38.7929 5.28596 38.5979 5.22488 38.3981 5.22445C38.1983 5.22402 38.0031 5.28426 37.8383 5.39721L9.36513 21.4878C8.98013 21.6635 8.71544 22.0533 8.76357 22.4864V54.658C8.72988 55.0381 8.932 55.3967 9.28091 55.5603L16.8895 59.8555C18.3188 60.6255 20.0729 61.0586 21.6466 60.4931C22.3353 60.2336 22.9281 59.7697 23.3457 59.1638C23.7633 58.5578 23.9857 57.8386 23.9831 57.1027L23.9903 25.1236C23.9566 24.6496 24.4042 24.2574 24.8638 24.3055H28.5213C29.0025 24.2935 29.3803 24.8036 29.3153 25.2801L29.3081 57.4612C29.3105 60.3199 28.1363 63.4287 25.4918 64.8316C22.2338 66.516 18.2057 66.1622 14.9861 64.5428L6.80488 60.0191C4.87988 59.0566 3.58772 56.9776 3.59975 54.8216V22.3372C3.60776 21.2814 3.89801 20.247 4.44042 19.3411C4.98283 18.4353 5.75765 17.691 6.68457 17.1854L35.266 1.02746ZM43.5531 23.5451C47.7087 23.3045 52.1579 23.3863 55.8972 25.4341C58.7919 27.0029 60.3969 30.2947 60.4498 33.5142C60.368 33.9474 59.9156 34.188 59.5017 34.1567C58.2986 34.1543 57.0907 34.1736 55.8827 34.1495C55.3702 34.1687 55.0742 33.6971 55.0093 33.2447C54.6628 31.7047 53.823 30.1816 52.3744 29.4381C50.1511 28.324 47.5716 28.3793 45.1461 28.4034C43.3751 28.4996 41.4717 28.6512 39.9726 29.6907C38.8176 30.48 38.4711 32.097 38.8826 33.353C39.2676 34.2746 40.3336 34.5706 41.2022 34.8449C46.212 36.1539 51.5178 36.048 56.4338 37.7492C58.4671 38.4519 60.457 39.8186 61.1548 41.9481C62.0644 44.802 61.6674 48.214 59.6389 50.5048C57.993 52.3913 55.5964 53.3923 53.2022 53.9746C50.0187 54.6844 46.7173 54.7013 43.4857 54.3836C40.4467 54.0371 37.2848 53.2383 34.9388 51.1689C32.9319 49.4268 31.955 46.7125 32.0513 44.0945C32.0753 43.6518 32.5157 43.3438 32.9416 43.3799H36.5509C37.037 43.3462 37.3931 43.7649 37.4172 44.2221C37.641 45.6658 38.192 47.2299 39.4721 48.0721C41.9409 49.665 45.0378 49.5543 47.8627 49.6C50.204 49.4966 52.8316 49.4653 54.7446 47.9156C55.7552 47.0326 56.0512 45.5575 55.7793 44.287C55.4833 43.2138 54.3355 42.7157 53.373 42.362C48.4282 40.798 43.0623 41.3658 38.1655 39.5948C36.178 38.8922 34.2554 37.564 33.4926 35.5211C32.4266 32.6336 32.9151 29.0555 35.1601 26.8417C37.3258 24.64 40.502 23.7906 43.5098 23.4874L43.5531 23.5451Z" fill="#8CC84B"/>
</g>
</svg>
