<svg width="77" height="69" viewBox="0 0 77 69" fill="none" xmlns="http://www.w3.org/2000/svg">
<g id="react" clip-path="url(#clip0_1_426)">
<path id="Vector" d="M0.226807 34.425C0.226807 40.1895 5.87013 45.5706 14.7669 48.6039C12.9902 57.525 14.4487 64.7157 19.3193 67.5174C24.3256 70.3974 31.7841 68.4039 38.8633 62.2314C45.7638 68.1546 52.7377 70.4856 57.6041 67.6758C62.6059 64.7877 64.1269 57.1095 62.3013 47.9097C71.5679 44.8539 76.7514 40.2654 76.7514 34.425C76.7514 28.7943 71.0978 23.9232 62.3208 20.9094C64.2863 11.3295 62.621 4.31338 57.5485 1.39588C52.6583 -1.41692 45.6032 1.03468 38.6013 7.11268C31.3167 0.661481 24.3313 -1.30802 19.2643 1.61758C14.3786 4.43848 12.9845 11.76 14.7669 20.8461C6.1703 23.8356 0.226807 28.8171 0.226807 34.425Z" fill="white"/>
<path id="Vector_2" d="M60.462 23.9022C59.7386 23.6547 59.0092 23.4255 58.2742 23.2146C58.3961 22.7207 58.5088 22.2245 58.6123 21.7263C60.2683 13.7079 59.1855 7.24833 55.4879 5.12193C51.9427 3.08253 46.1445 5.20893 40.2885 10.2918C39.7115 10.7938 39.1473 11.3103 38.5964 11.8407C38.2275 11.488 37.8521 11.1422 37.4703 10.8033C31.3332 5.36793 25.1815 3.07773 21.4878 5.21043C17.9459 7.25553 16.8969 13.3284 18.3878 20.9274C18.5361 21.68 18.7036 22.4286 18.8901 23.1726C18.0196 23.4192 17.179 23.682 16.3747 23.9616C9.17974 26.4636 4.58459 30.3852 4.58459 34.4526C4.58459 38.6538 9.5172 42.8676 17.0118 45.4224C17.6195 45.6286 18.2322 45.8197 18.8495 45.9954C18.6489 46.797 18.4709 47.604 18.3156 48.4155C16.8942 55.8825 18.0043 61.8114 21.5368 63.8439C25.1854 65.9424 31.3091 63.7854 37.2721 58.5864C37.7434 58.1754 38.2166 57.7395 38.6903 57.2826C39.2869 57.8568 39.8995 58.4144 40.5274 58.9545C46.3033 63.912 52.0077 65.9139 55.5372 63.876C59.1825 61.7712 60.367 55.4019 58.8288 47.6526C58.7115 47.0607 58.5747 46.4562 58.4213 45.8406C58.8514 45.714 59.2734 45.5832 59.6851 45.447C67.4762 42.8724 72.5451 38.7099 72.5451 34.4526C72.5451 30.3705 67.802 26.4225 60.462 23.9022Z" fill="#53C1DE"/>
<path id="Vector_3" d="M58.772 42.6984C58.4005 42.8211 58.0192 42.9396 57.6306 43.0545C56.7704 40.3386 55.6094 37.4505 54.1892 34.467C55.5447 31.554 56.6606 28.7031 57.4967 26.0046C58.1918 26.2056 58.8667 26.4171 59.517 26.6406C65.8061 28.7997 69.6421 31.9926 69.6421 34.4526C69.6421 37.0731 65.4987 40.4751 58.772 42.6984ZM55.9809 48.2151C56.6609 51.6417 56.758 54.7398 56.3075 57.1617C55.9026 59.3379 55.0888 60.7887 54.0824 61.3698C51.9406 62.6064 47.3602 60.999 42.421 56.7594C41.8546 56.2734 41.2841 55.7544 40.712 55.2054C42.627 53.1162 44.5408 50.6874 46.4086 47.9904C49.6942 47.6997 52.7981 47.2242 55.613 46.5753C55.7514 47.1333 55.8747 47.6802 55.9809 48.2151ZM27.7537 61.1562C25.6613 61.8933 23.9947 61.9143 22.9874 61.335C20.8435 60.102 19.9527 55.341 21.1681 48.9555C21.3126 48.2008 21.4781 47.4504 21.6643 46.7049C24.448 47.319 27.5293 47.7609 30.8228 48.0273C32.7029 50.6664 34.672 53.0922 36.6565 55.2165C36.2347 55.6234 35.803 56.0199 35.3616 56.4057C32.7248 58.7049 30.0826 60.3357 27.754 61.1562H27.7537ZM17.9508 42.6822C14.6369 41.5524 11.9002 40.0842 10.0243 38.4822C8.33878 37.0422 7.48761 35.6127 7.48761 34.4526C7.48761 31.9845 11.1771 28.836 17.3306 26.6961C18.1029 26.4287 18.8829 26.1839 19.6696 25.962C20.5202 28.7211 21.6358 31.6059 22.982 34.5231C21.6183 37.4838 20.4868 40.4145 19.6284 43.206C19.065 43.0451 18.5056 42.8705 17.9508 42.6822ZM21.237 20.3712C19.9596 13.8603 20.8078 8.94897 22.9423 7.71657C25.2161 6.40377 30.2435 8.27577 35.5424 12.9687C35.8811 13.2687 36.2212 13.5828 36.562 13.9077C34.5878 16.0224 32.6367 18.4299 30.7728 21.0537C27.5766 21.3492 24.5168 21.8238 21.704 22.4595C21.5308 21.7673 21.375 21.0712 21.237 20.3712ZM50.552 27.5913C49.8876 26.4466 49.1986 25.3163 48.4854 24.2013C50.6539 24.4743 52.7313 24.8373 54.6821 25.2816C54.0965 27.1539 53.3666 29.1117 52.507 31.1187C51.8789 29.93 51.2271 28.754 50.552 27.5913ZM38.5973 15.9771C39.9363 17.424 41.2775 19.0398 42.5966 20.7927C39.9207 20.6665 37.2403 20.6659 34.5643 20.7909C35.8847 19.0542 37.2372 17.4408 38.5973 15.9771ZM26.566 27.6111C25.8993 28.7645 25.2597 29.9333 24.6477 31.1166C23.8022 29.1165 23.0789 27.15 22.4881 25.251C24.4272 24.8181 26.495 24.4644 28.6494 24.1959C27.9282 25.3178 27.2336 26.4566 26.566 27.6111ZM28.7114 44.916C26.4857 44.6682 24.3866 44.3325 22.4481 43.9116C23.0482 41.979 23.7875 39.9702 24.651 37.9272C25.2656 39.1113 25.908 40.2808 26.5777 41.4348C27.2611 42.6119 27.9725 43.7726 28.7114 44.916ZM38.6776 53.1327C37.3016 51.6516 35.9292 50.0136 34.5887 48.2517C35.8898 48.3027 37.2165 48.3285 38.5648 48.3285C39.9502 48.3285 41.3196 48.2976 42.6673 48.2376C41.3439 50.0316 40.0076 51.672 38.6776 53.1327ZM52.5346 37.8231C53.443 39.8883 54.2087 41.8863 54.8169 43.7862C52.8462 44.2347 50.7189 44.5959 48.4773 44.8641C49.1956 43.7282 49.8912 42.5782 50.5637 41.4147C51.2473 40.2322 51.9045 39.0347 52.5346 37.8231ZM48.0487 39.9681C47.0192 41.7519 45.9319 43.5018 44.7883 45.2151C42.772 45.3588 40.6883 45.4329 38.5648 45.4329C36.4501 45.4329 34.3929 45.3672 32.4117 45.2391C31.2385 43.5298 30.1306 41.7768 29.0903 39.984C28.0549 38.2006 27.0877 36.3787 26.1909 34.5222C27.0854 32.6651 28.0497 30.8422 29.0816 29.0574V29.058C30.1132 27.2728 31.2124 25.5273 32.3768 23.8254C34.398 23.673 36.4703 23.5932 38.5651 23.5932C40.6693 23.5932 42.7443 23.6736 44.7649 23.8272C45.9175 25.5265 47.0097 27.2659 48.0394 29.0421C49.0748 30.8229 50.0519 32.6369 50.9691 34.4811C50.0614 36.3441 49.0871 38.1742 48.0487 39.9681ZM54.0379 7.63047C56.3135 8.93967 57.1987 14.2188 55.7688 21.1419C55.6751 21.5929 55.5732 22.0421 55.4632 22.4895C52.6438 21.8406 49.582 21.3576 46.3764 21.0576C44.5089 18.4053 42.5741 15.9936 40.6317 13.9062C41.1407 13.4167 41.6618 12.94 42.1945 12.4764C47.2119 8.12097 51.9012 6.40137 54.0379 7.63047Z" fill="white"/>
<path id="Vector_4" d="M38.5649 28.3995C41.9167 28.3995 44.6335 31.1097 44.6335 34.4526C44.6335 37.7958 41.9167 40.506 38.5649 40.506C35.2134 40.506 32.4963 37.7958 32.4963 34.4526C32.4963 31.1097 35.2134 28.3995 38.5649 28.3995Z" fill="#53C1DE"/>
</g>
<defs>
<clipPath id="clip0_1_426">
<rect width="77" height="69" fill="white"/>
</clipPath>
</defs>
</svg>
