<svg width="75" height="75" viewBox="0 0 75 75" fill="none" xmlns="http://www.w3.org/2000/svg">
<g id="typescript" clip-path="url(#clip0_1_434)">
<path id="Vector" d="M0 37.5V0H75V75H0" fill="#007ACC"/>
<path id="Vector_2" d="M16.4437 37.6312V40.6875H26.1937V68.4375H33.1125V40.6875H42.8625V37.6875C42.8625 36 42.8625 34.6312 42.7875 34.5937C42.7875 34.5375 36.8437 34.5187 29.625 34.5187L16.5 34.575V37.65L16.4437 37.6312ZM60.2625 34.5C62.175 34.95 63.6375 35.8125 64.95 37.1812C65.6437 37.9312 66.675 39.2437 66.75 39.5812C66.75 39.6937 63.5062 41.8875 61.5375 43.1062C61.4625 43.1625 61.1625 42.8437 60.8625 42.3562C59.8875 40.9687 58.8937 40.3687 57.3375 40.2562C55.0875 40.1062 53.5875 41.2875 53.5875 43.2562C53.5875 43.8562 53.7 44.1937 53.925 44.6812C54.4312 45.7125 55.3687 46.3312 58.275 47.6062C63.6375 49.9125 65.9625 51.4312 67.3687 53.6062C68.9625 56.0437 69.3187 59.8687 68.25 62.7375C67.05 65.8687 64.125 67.9875 59.9437 68.6812C58.6312 68.9062 55.6312 68.8687 54.225 68.625C51.225 68.0625 48.3562 66.5625 46.5937 64.6312C45.9 63.8812 44.5687 61.875 44.6437 61.7437L45.3562 61.2937L48.1687 59.6625L50.2875 58.425L50.775 59.0812C51.3937 60.0562 52.7812 61.3687 53.5875 61.8187C56.025 63.075 59.2875 62.9062 60.9 61.4437C61.5937 60.8062 61.8937 60.1312 61.8937 59.1937C61.8937 58.3312 61.7625 57.9375 61.3312 57.2812C60.7312 56.4562 59.5312 55.7812 56.1562 54.2812C52.275 52.6312 50.625 51.5812 49.0875 49.9687C48.2062 48.9937 47.4 47.475 47.025 46.2187C46.7437 45.1312 46.65 42.4687 46.9125 41.4C47.7187 37.65 50.55 35.025 54.6 34.275C55.9125 34.0125 59.0062 34.125 60.3 34.4625L60.2625 34.5Z" fill="white"/>
</g>
<defs>
<clipPath id="clip0_1_434">
<rect width="75" height="75" fill="white"/>
</clipPath>
</defs>
</svg>
